<svg xmlns="http://www.w3.org/2000/svg" xmlns:xlink="http://www.w3.org/1999/xlink" width="500" zoomAndPan="magnify" viewBox="0 0 375 374.999991" height="500" preserveAspectRatio="xMidYMid meet" version="1.0"><defs><clipPath id="a3c3545a71"><path d="M 96.398438 60.414062 L 278.648438 60.414062 L 278.648438 325 L 96.398438 325 Z M 96.398438 60.414062 " clip-rule="nonzero"/></clipPath></defs><rect x="-37.5" width="450" fill="#ffffff" y="-37.499999" height="449.999989" fill-opacity="1"/><g clip-path="url(#a3c3545a71)"><path fill="#5e17eb" d="M 216.296875 244.535156 L 216.296875 289.871094 C 249.421875 289.871094 276.554688 263.980469 278.535156 231.308594 L 229.582031 231.308594 C 222.230469 231.308594 216.296875 237.242188 216.296875 244.535156 Z M 216.296875 103.160156 L 216.296875 170.484375 L 113.074219 170.484375 C 103.863281 170.484375 96.398438 177.945312 96.398438 187.160156 L 96.398438 324.976562 L 138.003906 311.183594 C 150.382812 307.054688 158.695312 295.523438 158.695312 282.464844 L 158.695312 221.699219 L 261.914062 221.699219 C 271.128906 221.699219 278.589844 214.238281 278.589844 205.023438 L 278.589844 60.707031 L 236.984375 74.441406 C 224.664062 78.566406 216.296875 90.101562 216.296875 103.160156 Z M 158.695312 104.96875 C 126.019531 104.96875 99.167969 130.234375 96.625 162.285156 L 145.523438 162.285156 C 152.816406 162.285156 158.75 156.351562 158.75 149.058594 L 158.75 104.96875 Z M 158.695312 104.96875 " fill-opacity="1" fill-rule="nonzero"/></g></svg>